<?xml version="1.0" standalone="no"?>
<!DOCTYPE svg PUBLIC "-//W3C//DTD SVG 20010904//EN"
 "http://www.w3.org/TR/2001/REC-SVG-20010904/DTD/svg10.dtd">
<svg version="1.0" xmlns="http://www.w3.org/2000/svg"
 width="1024.000000pt" height="1024.000000pt" viewBox="0 0 1024.000000 1024.000000"
 preserveAspectRatio="xMidYMid meet">

<g transform="translate(0.000000,1024.000000) scale(0.100000,-0.100000)"
fill="#000000" stroke="none">
<path d="M2184 8634 c9 -33 35 -293 46 -469 12 -197 32 -1156 25 -1164 -3 -3
-83 20 -178 51 -94 31 -271 86 -392 123 -121 36 -317 97 -436 135 -123 40
-225 68 -235 64 -16 -5 -17 -4 -4 6 13 10 11 11 -8 7 -12 -3 -20 -1 -17 3 7
12 -32 23 -46 14 -7 -4 -9 -3 -6 3 4 6 0 13 -8 17 -8 3 -15 4 -15 2 0 -21 306
-650 430 -886 117 -222 192 -371 189 -375 -2 -2 -44 8 -94 21 -49 13 -94 24
-100 24 -9 0 -49 -61 -45 -69 1 -2 -3 -7 -10 -11 -19 -12 248 -100 302 -100
10 0 26 -13 36 -30 l18 -29 66 55 66 55 -109 232 c-60 127 -177 361 -259 520
-83 159 -149 291 -147 293 1 2 25 -3 52 -12 28 -8 136 -37 240 -64 105 -27
294 -76 420 -110 127 -34 250 -63 275 -65 25 -2 72 -13 104 -24 33 -12 62 -18
65 -15 11 11 12 1018 1 1203 -6 101 -9 186 -6 188 2 3 37 -22 78 -54 40 -33
127 -99 193 -148 66 -49 224 -166 350 -260 127 -94 262 -194 300 -221 39 -27
93 -66 120 -86 28 -21 53 -38 56 -38 11 0 80 163 71 169 -44 31 -193 146 -307
236 -139 110 -206 162 -401 305 -317 235 -388 285 -399 282 -7 -1 -19 6 -26
15 -13 17 -13 17 6 3 17 -12 18 -12 7 0 -7 8 -20 15 -30 15 -9 0 -16 6 -14 13
1 8 -2 11 -7 8 -5 -4 -21 9 -35 27 -35 46 -190 165 -182 141z"/>
<path d="M6862 8574 c-49 -27 -80 -50 -76 -56 5 -7 2 -8 -5 -4 -7 5 -45 -11
-91 -38 -44 -25 -85 -46 -92 -46 -8 0 -85 -41 -173 -92 -88 -50 -238 -129
-332 -175 -95 -46 -173 -87 -173 -90 0 -10 128 10 240 38 120 31 310 117 544
248 60 34 114 61 119 61 5 0 -1 -17 -14 -37 -51 -85 -80 -143 -71 -143 5 0 10
-11 10 -24 0 -30 23 -56 46 -52 21 3 109 152 100 169 -4 7 -3 9 1 4 12 -10 68
81 59 95 -4 7 -3 8 4 4 6 -3 16 3 22 14 10 18 8 19 -12 11 -28 -10 -61 -6 -66
9 -2 5 -8 8 -13 4 -5 -3 -9 4 -9 15 0 12 -5 21 -11 21 -5 0 -7 5 -4 10 11 18
-5 31 -26 20 -10 -6 -19 -9 -19 -6 0 3 29 21 65 41 36 20 65 39 65 41 0 6 0 6
-88 -42z m-58 -149 c-10 -8 -26 -14 -34 -14 -9 0 -4 6 10 14 33 19 49 19 24 0z
m9 -240 c-3 -9 -8 -14 -10 -11 -3 3 -2 9 2 15 9 16 15 13 8 -4z"/>
<path d="M7065 8594 c-9 -15 -12 -23 -6 -20 11 7 35 46 28 46 -3 0 -12 -12
-22 -26z"/>
<path d="M3951 8382 c-41 -103 -137 -317 -213 -477 -77 -159 -139 -297 -139
-305 2 -48 19 -212 23 -216 7 -6 388 753 388 773 0 26 14 4 35 -52 24 -67 140
-362 166 -422 l20 -47 30 84 c16 47 32 95 36 107 3 15 -16 72 -55 165 -86 202
-129 316 -170 448 -19 63 -38 118 -41 122 -4 4 -40 -77 -80 -180z"/>
<path d="M6700 8188 c-10 -22 -10 -22 4 -4 8 10 19 15 25 11 6 -3 11 -1 11 4
0 20 -29 11 -40 -11z"/>
<path d="M8684 8115 c-147 -43 -297 -117 -437 -214 -74 -52 -188 -151 -174
-151 4 0 55 20 111 45 57 25 191 75 297 111 249 84 379 155 379 205 0 36 -62
38 -176 4z"/>
<path d="M6753 8080 c-17 -30 -53 -41 -53 -17 0 7 -3 8 -8 2 -10 -15 -54 -19
-62 -6 -4 7 -28 -30 -56 -83 -32 -62 -46 -98 -39 -104 6 -5 30 -13 56 -16 l45
-7 48 85 c27 48 44 91 40 97 -4 8 -3 9 4 5 7 -4 19 9 32 34 24 47 19 54 -7 10z"/>
<path d="M7012 8093 c-17 -15 -21 -33 -24 -106 l-4 -87 51 2 c45 2 51 5 47 20
-4 16 7 23 31 19 10 -1 9 21 -2 38 -6 9 -6 22 0 32 6 12 5 19 -4 22 -9 4 -9 6
1 6 10 1 10 4 0 15 -9 10 -18 11 -30 5 -12 -7 -18 -6 -18 1 0 6 -4 8 -10 5 -5
-3 -10 3 -10 14 0 14 8 21 28 24 26 4 26 4 -4 6 -18 0 -41 -7 -52 -16z"/>
<path d="M7106 8077 c7 -19 45 -32 66 -24 7 3 2 6 -11 6 -14 1 -33 9 -43 18
-18 16 -18 16 -12 0z"/>
<path d="M5215 8039 c-53 -5 -49 -6 33 -6 51 0 91 2 88 4 -7 8 -56 8 -121 2z"/>
<path d="M5460 8022 c19 -12 136 -20 146 -9 4 4 -6 7 -22 7 -16 0 -54 3 -84 6
-37 3 -50 2 -40 -4z"/>
<path d="M4887 7939 c-63 -15 -112 -45 -163 -102 -61 -66 -63 -74 -159 -467
-41 -168 -83 -336 -94 -374 l-20 -69 52 -57 c46 -51 54 -56 68 -43 10 8 15 23
12 34 -3 11 0 48 6 82 23 118 182 750 196 776 18 35 64 77 98 90 39 15 108 14
202 -4 44 -8 170 -31 280 -50 110 -19 270 -48 355 -64 390 -74 553 -104 660
-122 268 -45 291 -50 280 -65 -9 -9 -18 -10 -36 -3 -14 5 -42 9 -62 9 -20 0
-75 7 -122 15 -47 9 -159 27 -250 40 -386 57 -871 143 -1079 191 -137 32 -177
36 -158 18 3 -3 23 -12 44 -19 l38 -14 -33 -1 c-18 0 -51 -9 -72 -20 -22 -11
-40 -18 -40 -14 0 4 -7 1 -15 -6 -8 -6 -14 -15 -13 -18 1 -4 -6 -24 -15 -44
-10 -21 -17 -42 -17 -47 0 -5 -5 -22 -11 -38 -8 -22 -12 -24 -19 -13 -6 8 -10
26 -11 40 0 27 -8 5 -48 -150 -13 -47 -36 -123 -52 -170 -36 -104 -102 -397
-93 -409 2 -2 31 12 65 32 l62 34 52 209 c69 275 114 443 127 476 15 39 70 71
111 65 18 -3 266 -48 552 -101 286 -54 556 -103 600 -111 162 -27 482 -85 560
-100 44 -9 267 -49 495 -91 898 -162 1376 -253 1414 -267 37 -14 66 -62 66
-112 0 -22 -25 -135 -56 -250 -31 -116 -62 -230 -68 -255 l-12 -45 -7 34 c-4
19 -10 31 -14 28 -3 -4 -13 -1 -21 6 -13 9 -14 9 -8 0 5 -9 -1 -13 -23 -13
-16 0 -31 6 -34 13 -3 7 -7 5 -12 -8 -39 -106 -64 -167 -65 -155 -1 13 -2 13
-9 0 -6 -10 -24 -15 -50 -14 -36 0 -39 -1 -30 -18 6 -12 6 -18 -1 -19 -20 -3
-25 -4 -39 -13 -10 -6 -12 -5 -7 2 5 8 0 12 -13 12 -12 0 -21 -3 -21 -7 0 -9
-62 -53 -73 -53 -4 0 -7 14 -7 30 0 20 -5 30 -15 30 -8 0 -18 0 -21 0 -4 0 -9
-42 -11 -92 -14 -297 -159 -529 -437 -696 -148 -89 -305 -127 -496 -119 -186
7 -306 52 -468 175 -40 30 -78 62 -85 72 -14 19 -107 52 -107 38 0 -45 159
-192 290 -269 81 -47 99 -62 47 -38 -17 8 -31 8 -43 1 -21 -12 -67 5 -57 21 4
6 0 8 -9 5 -8 -4 -21 -2 -29 3 -12 7 -12 9 1 9 11 1 8 6 -8 20 -19 16 -28 17
-44 9 -11 -6 -25 -8 -33 -6 -7 3 -16 2 -21 -3 -5 -4 -28 -11 -52 -14 -31 -4
-44 -2 -48 8 -3 8 -12 17 -20 20 -9 4 -12 2 -8 -5 9 -15 -13 -28 -37 -22 -14
4 -16 9 -10 22 7 13 5 17 -10 18 -13 1 -17 -2 -12 -10 4 -7 -1 -6 -11 2 -13
11 -14 16 -4 22 6 4 15 6 18 4 4 -2 7 3 7 11 0 13 -10 15 -51 10 -68 -7 -72
-7 -216 4 -69 6 -188 22 -265 36 -77 14 -142 26 -145 27 -12 1 -39 -16 -35
-23 9 -15 -32 -39 -72 -41 -24 -2 -40 -5 -38 -7 6 -6 -14 -42 -23 -42 -4 0
-19 11 -34 25 -55 51 -128 82 -128 55 0 -5 -7 -10 -16 -10 -8 0 -13 -4 -10 -8
8 -13 -37 -12 -53 1 -12 10 -14 9 -9 -4 10 -27 -50 -30 -154 -8 -110 22 -121
23 -115 7 2 -7 9 -13 14 -13 6 0 15 -4 20 -9 5 -5 3 -6 -4 -2 -7 4 -13 2 -13
-4 0 -7 7 -9 16 -6 9 4 40 -11 79 -39 34 -25 71 -45 82 -45 32 0 244 -47 513
-114 140 -35 300 -74 355 -86 91 -21 203 -65 193 -76 -3 -2 -29 4 -59 15 -30
10 -76 21 -104 24 -41 6 -34 2 45 -23 86 -28 132 -50 103 -50 -6 0 -70 14
-143 30 -73 17 -134 30 -136 30 -2 0 -4 6 -4 13 0 18 -37 34 -130 58 -85 22
-150 29 -150 17 0 -4 8 -8 18 -9 9 0 12 -3 5 -5 -12 -5 -324 73 -333 83 -5 6
76 -2 120 -12 14 -3 7 2 -15 11 -68 27 -219 64 -227 56 -5 -5 37 -50 92 -101
55 -51 100 -99 100 -107 0 -8 8 -14 18 -14 9 0 71 -13 137 -30 66 -16 235 -57
375 -89 385 -90 667 -157 850 -201 168 -41 344 -81 550 -125 63 -14 143 -34
176 -44 34 -10 67 -15 73 -11 11 6 353 -66 427 -90 45 -15 74 -54 74 -98 0
-47 17 -30 -863 -836 -89 -81 -223 -203 -297 -269 -74 -66 -213 -190 -309
-276 -296 -266 -328 -285 -476 -286 -79 0 -93 4 -855 261 -426 144 -872 295
-990 337 -467 164 -563 196 -667 227 -277 81 -695 223 -682 231 8 5 70 27 139
50 121 41 127 44 200 113 41 40 96 87 122 105 26 19 45 38 41 44 -3 6 -1 7 5
3 12 -7 119 57 139 83 6 9 11 46 11 83 l0 67 -92 -81 c-98 -87 -235 -192 -329
-252 -89 -57 -257 -118 -391 -141 -29 -5 -36 -9 -25 -16 9 -5 10 -9 2 -9 -6 0
-15 5 -18 10 -3 6 -39 10 -78 11 -73 0 -196 31 -167 42 8 3 71 21 140 41 288
84 534 243 891 576 85 80 218 200 295 267 502 435 716 692 779 938 56 221 -69
434 -272 461 l-50 6 47 93 c62 121 84 211 78 319 -7 139 -78 249 -196 304 -49
23 -70 27 -148 27 -85 0 -96 -2 -162 -36 l-70 -36 -7 36 c-32 176 -215 304
-389 272 -30 -5 -75 -20 -101 -32 -58 -27 -147 -107 -189 -171 l-33 -48 -21
29 c-12 16 -47 42 -79 58 -50 24 -70 28 -143 28 -78 0 -90 -3 -148 -34 -116
-63 -166 -133 -352 -490 -102 -197 -174 -325 -234 -419 -20 -32 -32 -42 -44
-37 -133 51 -274 7 -395 -123 -64 -69 -163 -224 -232 -363 -31 -63 -82 -157
-112 -210 l-55 -97 -107 -27 c-485 -126 -843 -248 -938 -321 -30 -22 -63 -75
-63 -100 0 -16 102 10 360 91 334 104 565 168 685 191 119 22 251 85 323 154
30 28 51 54 48 57 -3 3 -32 -8 -63 -24 -32 -17 -69 -34 -83 -38 -24 -7 -24 -7
-9 11 9 11 61 107 114 214 146 292 228 405 329 451 47 21 105 25 128 7 14 -12
12 -20 -25 -80 -22 -37 -78 -114 -123 -170 -45 -57 -80 -105 -78 -107 10 -10
126 73 206 148 183 172 309 368 547 851 89 181 135 249 198 293 99 70 218 47
259 -50 31 -71 12 -150 -81 -348 -83 -177 -257 -453 -347 -551 -34 -36 -66
-94 -52 -94 20 0 98 59 150 112 177 182 352 462 484 773 122 288 269 391 427
299 84 -49 117 -188 77 -325 -70 -238 -402 -750 -629 -971 -41 -39 -75 -76
-75 -80 0 -4 11 -8 24 -8 72 0 301 214 467 436 117 156 190 272 300 474 40 74
90 153 112 177 125 135 319 121 382 -29 18 -43 20 -145 4 -203 -52 -190 -293
-519 -619 -846 -102 -102 -222 -216 -267 -253 -46 -37 -83 -72 -83 -77 0 -44
177 55 349 195 100 81 307 288 411 411 99 117 147 146 233 146 121 0 189 -81
189 -226 -1 -107 -40 -196 -150 -345 -65 -88 -378 -403 -507 -510 -116 -96
-311 -270 -448 -399 -315 -296 -566 -442 -892 -519 -53 -12 -122 -16 -290 -17
-211 0 -222 -1 -265 -24 -212 -111 -749 -418 -915 -524 -189 -120 -206 -139
-167 -187 12 -15 32 -24 62 -27 43 -4 55 1 237 112 189 113 524 305 755 432
l118 65 108 -7 109 -7 12 -33 c15 -43 96 -126 146 -150 22 -10 312 -110 645
-221 908 -304 1690 -568 2115 -715 209 -72 495 -170 635 -217 l255 -86 105 0
c120 0 181 19 275 82 93 63 536 469 1245 1141 515 488 530 506 530 629 0 61 2
66 41 110 23 26 52 70 65 97 23 50 179 593 274 955 28 107 66 249 85 315 18
66 81 302 140 525 59 223 120 452 136 510 53 191 49 292 -15 381 -64 87 -173
141 -356 177 -208 41 -630 120 -840 157 -80 14 -329 59 -555 100 -225 40 -601
108 -835 150 -234 42 -506 91 -605 110 -713 133 -806 146 -898 124z m343 -226
c39 -11 40 -12 10 -9 -85 11 -120 18 -120 27 0 9 39 3 110 -18z m193 -40 c-7
-2 -19 -2 -25 0 -7 3 -2 5 12 5 14 0 19 -2 13 -5z m54 -9 c-3 -3 -12 -4 -19
-1 -8 3 -5 6 6 6 11 1 17 -2 13 -5z m50 -10 c-3 -3 -12 -4 -19 -1 -8 3 -5 6 6
6 11 1 17 -2 13 -5z m60 -10 c-3 -3 -12 -4 -19 -1 -8 3 -5 6 6 6 11 1 17 -2
13 -5z m1303 -164 c211 -36 396 -76 379 -82 -8 -3 -49 -2 -90 3 -41 4 -126 14
-189 20 -96 10 -118 16 -132 33 -12 14 -20 17 -25 10 -5 -6 -27 -15 -50 -19
-39 -6 -41 -5 -36 14 3 12 -1 28 -8 37 -12 15 -11 16 6 11 11 -3 76 -15 145
-27z m1440 -260 c274 -47 399 -74 440 -95 41 -21 38 -27 -5 -9 -19 8 -35 11
-35 8 0 -4 -7 -1 -15 6 -8 6 -19 9 -24 5 -6 -3 -19 -2 -28 3 -10 6 -40 13 -68
16 -198 26 -570 102 -515 105 8 1 121 -17 250 -39z m550 -225 c0 -5 -5 -3 -10
5 -5 8 -10 20 -10 25 0 6 5 3 10 -5 5 -8 10 -19 10 -25z m-154 -721 c-47 -187
-104 -404 -126 -484 -23 -80 -59 -212 -81 -295 -57 -212 -119 -418 -130 -430
-15 -15 -6 28 107 505 86 366 294 1064 311 1046 2 -2 -34 -156 -81 -342z
m-3396 -914 c20 -6 21 -8 5 -8 -11 0 -31 4 -45 8 -20 6 -21 8 -5 8 11 0 31 -4
45 -8z m63 -17 c-7 -2 -19 -2 -25 0 -7 3 -2 5 12 5 14 0 19 -2 13 -5z m222
-53 c13 -5 14 -9 5 -9 -8 0 -24 4 -35 9 -13 5 -14 9 -5 9 8 0 24 -4 35 -9z
m52 -16 c-3 -3 -12 -4 -19 -1 -8 3 -5 6 6 6 11 1 17 -2 13 -5z m40 -10 c-3 -3
-12 -4 -19 -1 -8 3 -5 6 6 6 11 1 17 -2 13 -5z m2280 -1262 c-15 -14 -27 -21
-27 -14 0 16 40 56 48 48 3 -4 -6 -19 -21 -34z m-4345 -567 c-5 -24 24 -52 67
-66 20 -6 66 -27 104 -46 58 -29 291 -105 368 -120 25 -5 52 12 61 37 4 12
149 -30 178 -51 12 -8 9 -9 -10 -3 -72 21 -124 33 -127 30 -4 -4 22 -13 297
-109 85 -29 196 -71 245 -91 50 -21 160 -64 245 -95 143 -52 344 -141 337
-148 -6 -6 -1640 541 -1760 589 l-79 31 31 24 c17 14 28 29 25 35 -4 6 -1 9 7
6 8 -3 13 -13 11 -23z"/>
<path d="M4908 7773 c7 -3 16 -2 19 1 4 3 -2 6 -13 5 -11 0 -14 -3 -6 -6z"/>
<path d="M4846 7745 c-11 -8 -17 -17 -14 -20 2 -3 13 4 23 15 21 23 18 25 -9
5z"/>
<path d="M4311 7646 l-24 -104 34 -111 c32 -105 50 -131 57 -83 2 12 8 22 13
22 5 0 9 9 9 20 0 12 9 30 20 42 19 21 20 21 21 2 0 -10 3 -14 5 -7 6 14 -66
234 -93 287 l-18 35 -24 -103z"/>
<path d="M8615 7733 c-265 -22 -519 -76 -605 -129 -24 -14 -21 -15 40 -10 240
20 491 13 865 -24 110 -10 333 -11 380 -1 20 4 31 13 33 28 11 75 -433 160
-713 136z"/>
<path d="M1779 7596 c8 -10 9 -16 1 -21 -5 -3 -10 -19 -10 -35 0 -24 -3 -27
-22 -23 -13 3 -32 13 -43 22 -11 8 -5 -1 14 -21 19 -20 37 -37 40 -36 26 3 51
-4 46 -12 -13 -21 11 -8 28 16 18 24 18 25 -18 74 -20 28 -39 50 -42 50 -3 0
0 -6 6 -14z"/>
<path d="M1650 7586 c0 -2 8 -10 18 -17 15 -13 16 -12 3 4 -13 16 -21 21 -21
13z"/>
<path d="M1846 7491 c-8 -12 18 -44 38 -47 14 -2 13 2 -5 27 -22 31 -25 33
-33 20z"/>
<path d="M1820 7425 c7 -8 16 -12 21 -9 13 8 1 24 -18 24 -13 0 -13 -3 -3 -15z"/>
<path d="M1895 7350 c10 -11 20 -20 23 -20 3 0 -3 9 -13 20 -10 11 -20 20 -23
20 -3 0 3 -9 13 -20z"/>
<path d="M2000 7273 c0 -6 8 -17 18 -24 16 -13 16 -13 2 6 -8 11 -16 22 -17
24 -2 2 -3 0 -3 -6z"/>
<path d="M6344 6806 c-79 -35 -98 -124 -45 -208 36 -57 74 -78 141 -78 69 0
115 -26 186 -103 68 -74 122 -122 130 -114 3 3 -4 40 -15 83 -11 44 -24 103
-30 132 -24 119 -112 241 -204 282 -49 23 -119 25 -163 6z m114 -58 c17 -17
15 -45 -4 -52 -28 -11 -64 20 -64 55 0 13 54 11 68 -3z"/>
<path d="M5394 6688 l-19 -23 23 19 c21 18 27 26 19 26 -2 0 -12 -10 -23 -22z"/>
<path d="M5246 6675 c-11 -8 -15 -19 -10 -27 5 -9 2 -8 -11 2 -11 9 -16 10
-11 3 4 -7 3 -13 -2 -13 -13 0 -6 -54 7 -58 6 -2 9 -8 5 -13 -10 -17 13 -9 58
21 55 37 87 70 64 66 -8 -1 -19 -5 -22 -9 -4 -4 -13 -2 -21 4 -9 9 -17 8 -27
0 -11 -9 -14 -8 -12 6 0 10 6 21 11 25 7 5 7 8 0 8 -5 -1 -18 -7 -29 -15z m94
-29 c0 -2 -8 -10 -17 -17 -16 -13 -17 -12 -4 4 13 16 21 21 21 13z"/>
<path d="M4960 6523 c-46 -14 -46 -14 -27 -27 17 -13 17 -14 -1 -18 -21 -6
-35 -55 -20 -64 14 -9 -84 -65 -102 -58 -11 4 -12 2 -4 -6 8 -8 37 2 108 40
53 29 96 54 96 56 0 3 -4 2 -10 -1 -5 -3 -10 1 -10 10 0 8 7 18 17 22 14 5 13
8 -6 15 -12 4 -20 12 -16 17 7 12 -6 20 -25 14z"/>
<path d="M7584 6485 c-8 -21 4 -35 31 -35 40 0 104 -30 124 -59 10 -14 24 -44
30 -66 23 -82 51 -86 51 -6 0 60 -34 128 -80 159 -40 27 -147 32 -156 7z"/>
<path d="M4776 6435 c-9 -9 -16 -22 -16 -28 0 -6 10 -2 22 11 12 12 19 24 16
27 -3 3 -13 -1 -22 -10z"/>
<path d="M7484 6298 c-118 -79 -140 -259 -40 -313 155 -83 347 217 208 325
-40 32 -109 27 -168 -12z m80 -31 c9 -15 5 -23 -22 -48 -38 -34 -67 -37 -82
-9 -9 17 -6 25 19 51 34 33 67 36 85 6z"/>
<path d="M8334 6249 c-4 -7 -3 -9 4 -5 5 3 13 0 15 -6 4 -9 6 -10 6 -1 1 17
-16 25 -25 12z"/>
<path d="M1288 6213 c7 -3 16 -2 19 1 4 3 -2 6 -13 5 -11 0 -14 -3 -6 -6z"/>
<path d="M6490 6158 c-7 -18 -15 -102 -17 -185 -5 -140 -4 -158 17 -224 14
-41 41 -96 67 -130 23 -33 43 -64 43 -69 0 -11 6 -14 110 -53 209 -80 411 -37
582 122 93 87 132 142 124 174 -5 22 -12 24 -93 30 -169 11 -451 111 -630 223
-47 30 -89 54 -95 54 -5 0 -29 20 -53 45 l-43 45 -12 -32z"/>
<path d="M5780 6040 c-8 -5 -10 -10 -5 -10 6 0 17 5 25 10 8 5 11 10 5 10 -5
0 -17 -5 -25 -10z"/>
<path d="M5598 5993 c7 -3 16 -2 19 1 4 3 -2 6 -13 5 -11 0 -14 -3 -6 -6z"/>
<path d="M5390 5963 c0 -15 -2 -16 -10 -3 -8 12 -10 12 -10 1 0 -8 -8 -20 -17
-27 -12 -9 7 -6 57 7 72 20 94 28 74 30 -5 0 -28 2 -51 5 -37 5 -43 3 -43 -13z"/>
<path d="M5508 5973 c7 -3 16 -2 19 1 4 3 -2 6 -13 5 -11 0 -14 -3 -6 -6z"/>
<path d="M5258 5903 c7 -3 16 -2 19 1 4 3 -2 6 -13 5 -11 0 -14 -3 -6 -6z"/>
<path d="M5260 5559 c-132 -18 -307 -51 -242 -45 21 2 32 -2 32 -11 0 -7 -4
-13 -10 -13 -17 0 -11 -18 8 -23 13 -4 12 -5 -5 -6 -12 0 -25 -6 -29 -12 -4
-8 3 -9 22 -6 16 3 90 8 164 12 227 10 563 48 615 69 l29 12 -45 22 c-53 26
-75 27 -149 7 -75 -20 -180 -30 -160 -16 13 10 13 12 0 21 -21 13 -73 11 -230
-11z m203 -26 c-7 -2 -19 -2 -25 0 -7 3 -2 5 12 5 14 0 19 -2 13 -5z"/>
<path d="M1245 5541 c-136 -37 -134 -36 -107 -43 12 -4 20 -2 16 3 -7 12 28
11 46 -2 12 -8 9 -9 -9 -4 -20 6 -23 4 -18 -9 5 -12 3 -15 -6 -10 -7 5 -5 0 3
-11 14 -17 13 -18 -12 -13 -15 3 -25 1 -22 -3 3 -5 -3 -9 -12 -9 -10 0 -15 -2
-12 -5 6 -6 185 33 208 45 8 5 26 27 38 49 29 51 27 51 -113 12z"/>
<path d="M4903 5501 c-24 -4 -46 -11 -50 -15 -4 -4 13 -24 37 -45 38 -33 47
-37 60 -26 15 13 19 15 42 15 6 0 2 10 -10 23 -12 13 -19 27 -15 30 3 4 -2 7
-13 8 -15 1 -13 3 6 9 32 10 4 11 -57 1z"/>
<path d="M1012 5413 c-35 -8 -61 -17 -59 -19 5 -6 147 26 147 32 0 6 -18 3
-88 -13z"/>
<path d="M5018 5343 c7 -3 16 -2 19 1 4 3 -2 6 -13 5 -11 0 -14 -3 -6 -6z"/>
<path d="M5245 5250 c3 -5 8 -10 11 -10 2 0 4 5 4 10 0 6 -5 10 -11 10 -5 0
-7 -4 -4 -10z"/>
<path d="M4991 5123 c-1 -7 -19 -13 -43 -15 -23 -2 -43 -7 -45 -13 -4 -14 54
-46 102 -57 73 -16 84 -16 78 -2 -4 10 9 12 57 10 49 -2 66 1 83 16 12 11 16
17 10 13 -7 -3 -13 -2 -13 4 0 5 10 11 23 13 12 2 -33 9 -100 17 -67 7 -126
10 -131 7 -6 -3 -13 0 -15 6 -4 9 -6 10 -6 1z"/>
<path d="M5365 5070 c-3 -5 -1 -10 4 -10 6 0 11 5 11 10 0 6 -2 10 -4 10 -3 0
-8 -4 -11 -10z"/>
<path d="M5291 5051 l-22 -19 51 -11 c76 -16 97 -14 103 10 4 15 2 19 -9 15
-9 -3 -14 1 -15 12 0 10 -3 12 -6 5 -2 -7 -16 -13 -29 -13 -14 0 -22 4 -19 10
11 18 -31 11 -54 -9z"/>
<path d="M6038 5053 c6 -2 18 -2 25 0 6 3 1 5 -13 5 -14 0 -19 -2 -12 -5z"/>
<path d="M5120 5020 c20 -13 43 -13 35 0 -3 6 -16 10 -28 10 -18 0 -19 -2 -7
-10z"/>
<path d="M5039 4962 c84 -100 107 -117 161 -117 28 0 50 -3 50 -6 0 -11 48
-28 122 -43 40 -9 113 -27 163 -41 112 -31 122 -31 157 2 35 34 35 51 1 59
-25 7 -26 8 -8 16 15 6 14 7 -8 3 -32 -6 -79 4 -72 15 3 5 -30 16 -72 25 -43
9 -98 21 -123 27 -25 5 -58 12 -75 14 -56 9 -190 43 -263 68 l-73 25 40 -47z
m271 -67 c-7 -9 -15 -13 -17 -11 -7 7 7 26 19 26 6 0 6 -6 -2 -15z m188 -37
c-6 -18 -28 -21 -28 -4 0 9 7 16 16 16 9 0 14 -5 12 -12z"/>
<path d="M4429 4974 c-12 -16 -12 -17 1 -9 13 8 13 7 1 -8 -12 -15 -11 -20 4
-37 10 -11 26 -20 37 -20 21 0 24 -13 5 -29 -15 -12 -27 -1 -62 53 l-18 30
-29 -34 c-15 -19 -28 -41 -28 -50 0 -9 -7 -43 -16 -75 -19 -72 -22 -86 -30
-192 -6 -73 -5 -83 10 -83 9 0 16 -5 16 -11 0 -5 4 -8 9 -4 12 7 17 -21 12
-65 -3 -28 -5 -31 -11 -15 -4 11 -7 -20 -6 -68 l1 -88 38 -11 c20 -6 37 -15
37 -19 0 -5 6 -6 14 -3 7 3 114 -22 237 -55 275 -73 776 -206 883 -234 49 -13
83 -17 91 -11 111 82 125 95 125 124 0 16 -4 31 -9 35 -6 3 -61 18 -123 34
-62 16 -219 57 -348 91 -129 34 -275 72 -325 85 -172 44 -393 104 -451 122
-52 15 -56 18 -29 21 17 2 39 12 50 22 20 19 20 18 20 -12 0 -30 3 -33 60 -50
33 -10 62 -18 65 -18 16 0 160 118 160 130 0 4 -24 15 -52 24 -29 9 -39 14
-23 12 17 -3 39 -8 50 -12 17 -6 17 -3 -5 19 -14 14 -63 57 -110 96 l-85 70
-25 -22 c-14 -12 -19 -15 -12 -7 6 8 12 20 12 28 0 15 -46 63 -53 56 -2 -3 -2
7 0 20 3 14 14 28 25 32 11 3 22 14 26 25 6 16 27 -3 122 -112 63 -71 117
-136 120 -143 3 -7 11 -19 18 -27 7 -8 18 -22 25 -31 12 -17 162 -67 202 -68
10 0 39 -7 63 -17 32 -12 46 -13 54 -5 8 8 14 7 22 -4 6 -8 56 -26 111 -39
l99 -25 61 41 c33 23 72 54 87 69 23 24 25 29 11 34 -9 4 -21 -1 -29 -11 -12
-16 -13 -16 -14 -2 0 25 -24 40 -97 60 -75 20 -74 22 9 23 37 1 58 -3 58 -10
0 -12 138 -54 175 -54 10 0 27 7 37 17 17 15 18 15 18 -5 0 -12 8 -26 18 -31
25 -13 120 -33 169 -35 25 -1 48 -8 55 -18 14 -17 89 -38 138 -38 22 0 49 14
91 46 55 42 72 64 49 64 -5 0 -10 7 -10 15 0 8 -10 17 -22 20 -122 28 -161 35
-166 31 -3 -3 -11 -1 -18 5 -7 6 -57 21 -111 35 -86 21 -99 22 -109 9 -15 -21
-24 -19 -24 5 0 15 -7 20 -24 20 -14 0 -28 -5 -32 -12 -5 -8 -10 -5 -15 9 -6
16 -25 25 -83 39 -74 17 -76 17 -98 -2 -13 -11 -32 -26 -43 -34 -20 -14 -20
-14 -2 7 10 12 17 30 15 40 -3 18 -29 26 -213 68 -44 10 -88 22 -97 27 -27 13
-22 -3 11 -40 54 -58 122 -152 107 -146 -7 3 -17 1 -21 -5 -3 -6 -17 -11 -30
-11 -26 0 -43 -16 -24 -22 6 -2 -16 -28 -50 -57 -33 -29 -66 -51 -73 -49 -6 2
4 14 23 26 20 12 44 30 54 42 17 19 17 21 0 40 -9 10 -36 24 -59 29 -41 11
-35 10 48 -1 10 -2 21 2 23 9 4 12 -233 143 -261 143 -9 0 -16 3 -16 8 0 4
-18 18 -39 31 -26 17 -38 30 -36 43 2 9 -1 20 -7 24 -7 4 -6 9 2 14 16 10
-188 80 -225 78 -16 -1 -62 1 -101 5 -61 7 -73 5 -85 -9z m216 -14 c3 -5 0
-10 -7 -10 -7 -1 3 -9 22 -20 42 -23 34 -25 -17 -6 -21 8 -47 17 -58 19 -15 3
-13 5 8 6 15 0 27 6 27 11 0 6 4 10 9 10 6 0 13 -4 16 -10z m-185 -150 c0 -5
-7 -10 -16 -10 -8 0 -12 5 -9 10 3 6 10 10 16 10 5 0 9 -4 9 -10z m410 -80
c-10 -18 -7 -22 27 -37 23 -10 32 -18 23 -20 -9 -2 -38 6 -64 18 l-48 21 28
18 c38 24 47 24 34 0z m93 -67 c-13 -2 -23 -8 -23 -12 0 -4 -19 -20 -42 -35
l-43 -27 42 41 c26 25 51 39 65 39 l23 -2 -22 -4z m497 4 c0 -2 -10 -12 -22
-23 l-23 -19 19 23 c18 21 26 27 26 19z m-400 -17 c20 -6 21 -8 5 -8 -11 0
-33 4 -50 8 -27 7 -27 8 -5 8 14 0 36 -4 50 -8z m-509 -40 c7 0 10 -2 8 -4 -5
-5 -118 20 -126 27 -2 3 13 3 35 0 26 -4 42 -1 47 8 6 9 10 7 16 -9 5 -12 14
-22 20 -22z m90 -28 c13 -6 11 -11 -14 -31 -26 -22 -28 -22 -19 -4 8 14 8 23
0 31 -14 14 5 16 33 4z m66 -18 c-3 -3 -12 -4 -19 -1 -8 3 -5 6 6 6 11 1 17
-2 13 -5z m-320 -100 c-3 -3 -12 -4 -19 -1 -8 3 -5 6 6 6 11 1 17 -2 13 -5z"/>
<path d="M5740 4811 c13 -10 10 -15 -18 -39 -55 -46 -51 -49 108 -86 55 -12
68 -13 86 -1 36 23 55 47 50 61 -6 16 3 18 24 4 13 -9 10 -15 -18 -38 -56 -47
-52 -49 125 -94 l92 -22 28 20 c29 22 42 59 25 76 -5 5 -20 11 -33 12 -55 6
-130 29 -119 36 7 4 -13 12 -46 18 -33 6 -102 20 -154 32 -132 29 -169 35
-150 21z"/>
<path d="M8953 4671 c-34 -16 -70 -27 -80 -25 -15 4 -24 -6 -43 -45 -13 -28
-41 -77 -62 -108 -21 -32 -33 -59 -28 -61 5 -2 54 16 107 41 54 24 121 52 150
61 89 30 134 113 81 150 -32 23 -55 20 -125 -13z"/>
<path d="M6335 4673 c19 -15 19 -15 -8 -9 -22 5 -37 1 -63 -19 -59 -45 -52
-51 111 -94 61 -16 87 -13 120 13 27 22 29 27 17 45 -10 17 -10 21 0 21 42 2
-78 41 -167 54 -29 5 -29 5 -10 -11z"/>
<path d="M6556 4595 c-43 -25 -63 -52 -50 -65 5 -5 65 -23 133 -40 l123 -31
34 23 c37 25 43 51 17 68 -16 10 -15 11 5 7 12 -3 22 -2 22 3 0 8 -42 18 -225
54 -11 2 -38 -7 -59 -19z"/>
<path d="M3918 4504 c-89 -72 -143 -139 -140 -173 2 -14 -4 -46 -13 -70 -8
-24 -15 -62 -15 -84 0 -59 -56 -135 -106 -143 -7 -1 -39 -24 -72 -50 -255
-206 -250 -201 -233 -233 11 -20 41 -19 41 2 0 6 8 20 18 31 17 20 16 20 -3 6
-18 -13 -19 -13 -8 0 6 8 48 42 93 75 45 33 103 77 128 98 26 20 50 37 54 37
13 0 9 -17 -7 -30 -8 -7 -15 -17 -15 -23 0 -16 50 34 66 66 9 16 20 25 26 21
6 -4 8 -3 4 4 -8 13 190 152 217 152 3 0 31 -33 63 -72 73 -92 173 -197 199
-210 18 -10 18 -8 -3 14 -12 14 -32 51 -43 83 -11 32 -28 75 -38 94 -13 25
-16 44 -10 64 4 16 3 27 -2 27 -6 0 -7 5 -4 10 4 7 -3 9 -19 6 -19 -3 -23 -1
-19 11 4 10 2 14 -4 10 -6 -4 -20 5 -30 19 -18 25 -21 25 -62 14 -34 -9 -46
-8 -59 2 -14 11 -14 9 2 -16 10 -15 14 -31 9 -35 -15 -14 -163 -92 -163 -86 0
3 14 30 31 61 30 52 78 99 101 99 6 0 14 7 17 15 3 8 17 16 31 18 14 2 30 10
37 18 9 13 13 12 27 -7 8 -12 12 -27 9 -32 -4 -6 -1 -7 6 -3 7 5 9 15 6 25 -4
9 -8 24 -11 35 -2 10 -13 25 -24 33 -11 8 -28 29 -37 46 -15 30 -15 31 0 18
14 -11 17 -11 17 0 0 11 2 11 10 -1 5 -8 7 -24 3 -35 -4 -15 2 -12 26 13 31
32 31 33 15 64 -37 71 -42 72 -116 12z"/>
<path d="M6260 4536 c0 -7 -18 -30 -41 -50 -66 -60 -49 -76 119 -113 67 -15
73 -15 90 0 24 22 29 21 28 -5 -1 -19 10 -24 84 -44 107 -29 102 -29 141 3
l32 27 -16 -29 -15 -30 46 -17 c26 -9 38 -17 28 -17 -11 -1 -42 -22 -70 -48
-29 -27 -65 -57 -81 -69 -48 -34 -30 -49 94 -78 l111 -26 65 52 c59 47 65 55
65 89 0 42 -3 43 -85 54 -28 3 -57 11 -65 16 -15 10 -10 10 93 -7 31 -6 42 -3
62 16 14 13 25 18 25 12 0 -6 -4 -14 -10 -17 -31 -19 -2 -34 128 -64 118 -28
253 -64 287 -77 6 -2 -8 -1 -30 1 -38 5 -43 3 -107 -59 -100 -95 -96 -104 66
-141 68 -16 69 -16 101 7 61 44 135 116 135 132 0 9 8 16 19 16 19 0 118 78
133 104 5 8 6 21 3 28 -5 13 -161 56 -322 89 l-61 13 -49 -40 c-26 -21 -56
-47 -65 -56 -10 -10 -18 -14 -18 -10 0 4 20 25 45 45 73 62 65 72 -88 107 -72
16 -102 19 -110 11 -16 -16 -37 -14 -37 4 0 20 -22 29 -115 49 -44 9 -93 21
-110 26 -16 5 -68 18 -113 29 l-84 20 -23 -27 -24 -27 2 30 c2 30 1 30 -98 57
-115 30 -165 35 -165 14z"/>
<path d="M5584 4510 c-5 -11 -31 -35 -59 -53 -37 -24 -50 -38 -50 -56 0 -23 9
-27 109 -54 122 -34 108 -36 204 36 48 36 50 40 41 66 -8 22 -19 31 -45 35
-19 4 -34 10 -34 15 0 7 -109 31 -142 31 -8 0 -19 -9 -24 -20z"/>
<path d="M6842 4499 c-58 -37 -41 -49 134 -93 l160 -40 37 28 c37 28 46 49 27
61 -11 7 -101 25 -137 28 -11 1 -19 5 -17 8 2 4 -3 10 -12 13 -22 8 -26 8 -19
-4 8 -13 2 -13 -70 5 -74 18 -64 18 -103 -6z"/>
<path d="M4790 4477 c-19 -17 -46 -39 -60 -49 -37 -24 -17 -50 52 -67 52 -13
57 -13 84 6 40 27 115 69 84 46 -58 -43 -75 -62 -65 -72 6 -6 57 -22 113 -37
l102 -26 65 52 c77 62 82 82 23 100 -24 7 -56 16 -72 21 -44 14 -89 11 -115
-7 -22 -16 -23 -16 -17 3 8 26 -7 37 -66 52 -70 17 -90 14 -128 -22z"/>
<path d="M5815 4390 c-38 -33 -70 -65 -70 -72 0 -7 14 -15 30 -19 17 -4 83
-21 148 -38 l118 -31 74 54 c68 51 73 57 66 82 -7 26 -14 29 -132 55 -68 15
-133 28 -144 28 -11 0 -51 -27 -90 -59z"/>
<path d="M7228 4417 c-39 -23 -55 -45 -41 -57 4 -4 40 -15 78 -24 39 -10 91
-25 118 -33 45 -14 49 -14 82 7 52 32 49 66 -7 80 -24 6 -75 20 -114 31 -38
10 -72 19 -75 19 -2 -1 -21 -11 -41 -23z"/>
<path d="M5215 4359 c-27 -23 -54 -48 -59 -57 -14 -25 21 -45 126 -70 l95 -23
72 46 c108 70 100 87 -59 126 -105 26 -118 24 -175 -22z"/>
<path d="M6213 4343 c-22 -21 -58 -53 -79 -70 l-39 -33 21 -18 c11 -10 68 -28
125 -41 135 -30 163 -37 230 -57 l56 -16 76 56 c60 44 77 62 77 82 0 13 -6 26
-12 28 -7 2 -37 11 -67 20 -74 22 -91 21 -91 -6 0 -16 -19 -38 -61 -71 -34
-27 -63 -46 -66 -43 -3 2 18 21 46 42 28 21 51 46 51 55 0 17 -30 49 -47 49
-6 0 -16 6 -22 14 -7 8 -36 20 -64 26 -28 6 -61 13 -73 16 -16 4 -32 -5 -61
-33z"/>
<path d="M7630 4360 c8 -5 24 -10 35 -11 11 0 14 -3 7 -6 -7 -3 -35 1 -63 7
-46 11 -52 11 -84 -11 -68 -47 -60 -54 104 -94 103 -26 105 -26 130 -8 41 31
49 52 27 69 -17 12 -18 14 -3 14 36 0 14 18 -41 34 -66 18 -137 22 -112 6z
m127 -36 c-3 -3 -12 -4 -19 -1 -8 3 -5 6 6 6 11 1 17 -2 13 -5z"/>
<path d="M5513 4285 c-90 -60 -89 -92 2 -115 28 -6 71 -19 97 -27 l47 -14 76
52 c103 72 101 86 -20 116 -122 30 -141 29 -202 -12z m97 -15 c0 -5 -4 -10
-10 -10 -5 0 -10 5 -10 10 0 6 5 10 10 10 6 0 10 -4 10 -10z"/>
<path d="M5787 4204 c-40 -33 -67 -62 -65 -72 2 -10 37 -25 108 -45 118 -33
104 -36 204 41 96 73 89 79 -159 128 -13 3 -43 -15 -88 -52z"/>
<path d="M4267 4216 c-5 -21 -6 -41 -3 -44 12 -11 17 7 14 44 l-3 39 -8 -39z"/>
<path d="M4296 4184 c-4 -10 -2 -13 6 -8 8 5 9 -13 4 -67 -4 -41 -12 -75 -17
-77 -5 -2 -9 -10 -9 -18 0 -8 -5 -14 -12 -14 -6 0 -19 -7 -29 -16 -17 -15 -17
-18 4 -48 12 -17 23 -32 23 -34 1 -2 18 12 37 30 43 41 61 76 83 163 18 72 14
84 -29 85 -10 0 -27 4 -37 10 -13 7 -19 6 -24 -6z"/>
<path d="M6077 4139 c-71 -53 -87 -73 -70 -90 5 -5 50 -20 99 -34 l89 -25 25
20 c14 11 43 34 65 51 78 59 70 78 -41 103 -39 9 -78 18 -85 21 -8 3 -45 -18
-82 -46z"/>
<path d="M6981 4168 c-7 -13 -32 -39 -57 -58 -33 -26 -44 -42 -44 -62 0 -30
-9 -26 164 -69 l90 -22 15 23 c8 13 32 41 53 62 36 38 51 89 30 102 -4 2 -48
12 -97 21 -50 10 -101 19 -115 22 -20 3 -29 -1 -39 -19z"/>
<path d="M8761 4151 c-8 -5 -27 -8 -42 -6 -16 2 -31 0 -34 -5 -3 -5 -12 -7
-19 -4 -8 3 -17 0 -21 -6 -4 -7 -29 -9 -68 -6 -39 3 -19 -2 53 -15 82 -14 175
-20 320 -23 175 -3 182 -2 47 3 -86 3 -157 9 -157 14 0 48 -1 57 -11 57 -5 0
-7 -4 -4 -10 3 -5 1 -10 -4 -10 -6 0 -11 5 -11 12 0 9 -3 9 -12 0 -15 -15 -32
-16 -23 -2 8 12 4 12 -14 1z"/>
<path d="M3935 4140 c3 -5 16 -10 28 -10 18 0 19 2 7 10 -20 13 -43 13 -35 0z"/>
<path d="M6329 4082 c-72 -60 -85 -80 -67 -97 7 -8 70 -28 141 -45 l127 -32
20 24 c19 23 19 23 20 1 0 -12 12 -31 28 -42 16 -12 21 -20 13 -21 -14 0 -89
-46 -101 -61 -3 -4 -14 -9 -26 -13 -29 -9 -68 -52 -61 -69 6 -17 231 -82 253
-73 31 12 164 132 164 148 0 25 12 23 169 -22 76 -22 149 -40 162 -40 22 0 67
32 153 107 37 33 23 47 -64 67 -184 40 -306 69 -406 96 -125 34 -166 37 -185
14 -7 -8 -26 -22 -42 -31 l-30 -15 21 27 c12 15 22 33 22 40 0 11 -66 34 -188
65 -24 6 -49 13 -55 15 -7 2 -37 -17 -68 -43z m366 -222 c13 -6 15 -9 5 -9 -8
0 -22 4 -30 9 -18 12 -2 12 25 0z m-5 -30 c0 -5 -4 -10 -10 -10 -5 0 -10 5
-10 10 0 6 5 10 10 10 6 0 10 -4 10 -10z"/>
<path d="M5830 4024 c-44 -46 -111 -84 -130 -74 -11 6 -21 5 -28 -2 -20 -20
-13 -37 16 -44 15 -4 91 -24 169 -45 79 -22 154 -39 168 -39 33 0 177 116 173
139 -4 18 -208 79 -293 87 -44 4 -53 1 -75 -22z"/>
<path d="M5778 4024 c-16 -8 -28 -17 -28 -19 0 -11 19 -4 41 15 29 23 24 25
-13 4z"/>
<path d="M5720 3980 c-9 -6 -10 -10 -3 -10 6 0 15 5 18 10 8 12 4 12 -15 0z"/>
<path d="M9023 3963 c-20 -7 -15 -30 7 -36 23 -6 34 7 26 28 -6 15 -12 17 -33
8z"/>
<path d="M6138 3862 c-26 -25 -39 -45 -36 -54 5 -13 218 -78 254 -78 17 0 94
70 94 85 0 9 -23 21 -57 31 -32 9 -87 24 -122 35 -35 10 -70 19 -77 19 -8 0
-33 -17 -56 -38z"/>
<path d="M6770 3691 c-63 -55 -64 -54 138 -107 62 -16 62 -16 96 7 77 52 66
79 -44 109 -133 37 -139 36 -190 -9z"/>
<path d="M8366 3712 c-3 -5 -15 -12 -26 -15 -11 -3 -18 -1 -14 4 3 5 1 9 -4 9
-6 0 -13 -7 -16 -16 -4 -9 -13 -14 -21 -10 -36 13 -10 -6 43 -33 l59 -30 16
29 c19 31 22 60 8 60 -5 0 -16 3 -24 6 -8 3 -18 1 -21 -4z"/>
<path d="M1983 3554 c-119 -55 -206 -111 -197 -126 4 -7 3 -8 -4 -4 -7 4 -12
3 -12 -2 0 -5 -6 -9 -13 -9 -7 0 -58 -37 -114 -82 -74 -60 -100 -87 -96 -99 4
-15 3 -15 -6 -2 -9 13 -15 11 -38 -15 -15 -16 -19 -22 -7 -12 20 16 70 17 95
1 8 -4 9 -3 5 4 -4 7 0 12 11 13 11 0 13 3 5 6 -6 2 -10 9 -6 14 3 5 -2 9 -10
9 -9 0 -16 4 -16 9 0 6 9 8 20 6 11 -2 18 0 15 4 -2 5 2 14 11 22 13 10 16 9
21 -9 3 -12 9 -22 13 -22 13 0 3 -52 -11 -61 -32 -17 -62 -49 -48 -50 8 -1 1
-5 -16 -9 l-30 -8 27 -1 c15 0 87 10 160 23 201 37 330 57 336 51 3 -2 0 -11
-6 -18 -7 -8 -8 -18 -4 -22 4 -5 2 -5 -4 -2 -7 4 -50 -35 -101 -91 -134 -147
-180 -199 -158 -181 11 9 34 15 50 14 17 -2 35 0 40 3 6 4 16 7 22 8 7 1 20 9
29 18 8 9 20 17 25 17 5 1 15 2 22 3 6 1 11 7 9 14 -1 7 2 12 8 12 5 0 10 6
10 13 0 6 13 19 28 28 32 18 270 300 271 322 2 17 -54 9 -428 -64 -112 -22
-205 -38 -208 -36 -2 3 12 15 32 27 19 12 32 27 29 32 -4 7 -2 8 5 4 6 -4 14
0 17 8 3 9 10 14 14 11 4 -3 14 3 21 12 12 14 12 16 -1 8 -13 -8 -13 -7 -1 8
7 9 10 17 7 17 -21 0 21 25 45 27 31 2 115 57 188 120 30 27 42 44 40 59 -4
20 -8 19 -96 -22z m-336 -400 c-3 -3 -12 -4 -19 -1 -8 3 -5 6 6 6 11 1 17 -2
13 -5z"/>
<path d="M7820 3461 c-47 -44 -83 -81 -80 -83 20 -18 391 -288 415 -303 17
-10 110 -79 208 -152 181 -135 234 -171 210 -142 -10 12 -8 15 7 15 10 0 16
-4 14 -8 -3 -4 0 -8 5 -8 6 0 11 3 11 8 0 11 -198 204 -315 307 -55 48 -104
93 -110 99 -5 7 -48 41 -95 78 -74 57 -146 123 -114 105 6 -3 18 2 27 13 15
18 16 18 53 -1 48 -24 124 -26 124 -3 0 8 -7 23 -16 31 -11 12 -12 18 -4 23 8
5 6 9 -7 13 -19 6 -208 71 -233 81 -10 3 -46 -23 -100 -73z"/>
<path d="M2950 3369 c0 -14 6 -33 13 -43 12 -16 14 -17 27 -1 12 14 10 20 -13
43 l-27 27 0 -26z"/>
<path d="M1636 3232 c-3 -5 1 -9 9 -9 8 0 15 4 15 9 0 4 -4 8 -9 8 -6 0 -12
-4 -15 -8z"/>
<path d="M3126 3214 c10 -8 13 -13 7 -9 -7 3 -22 -3 -33 -13 -20 -18 -20 -20
-3 -27 23 -9 7 -14 -172 -56 -275 -63 -988 -253 -842 -224 15 3 27 1 27 -5 0
-5 -3 -10 -7 -10 -13 0 -12 -54 0 -69 10 -12 9 -13 -6 -8 -11 4 -16 3 -12 -3
3 -5 -6 -12 -20 -16 -14 -3 -24 -8 -22 -11 3 -2 31 3 63 13 65 19 341 92 584
155 85 22 177 47 204 54 27 8 51 13 53 11 2 -2 -37 -104 -87 -226 -49 -123
-88 -226 -85 -228 3 -3 9 6 14 19 5 13 10 20 10 14 1 -5 25 -11 54 -12 l53 -2
28 82 c16 45 59 156 96 247 38 91 74 185 81 210 7 25 14 47 15 48 5 7 192 -86
211 -104 10 -11 36 -27 57 -37 41 -19 39 -31 -6 -42 -23 -6 -27 -4 -30 21 -2
15 -7 29 -13 30 -5 2 -36 -31 -67 -73 -53 -70 -69 -103 -50 -103 19 0 231 104
226 112 -3 4 -4 8 -2 8 7 0 160 -68 165 -74 3 -3 -43 -29 -103 -57 -60 -28
-217 -104 -350 -169 -260 -128 -244 -115 -235 -183 1 -4 12 -12 26 -19 13 -6
22 -16 18 -21 -8 -13 -8 -13 140 53 65 29 116 55 113 57 -2 3 -13 0 -24 -6
-23 -12 -53 -15 -37 -3 15 11 16 65 2 74 -8 5 -6 8 6 8 10 0 16 4 13 9 -14 22
39 17 91 -9 l56 -28 76 32 c42 18 144 64 226 101 166 75 193 87 312 136 45 19
83 37 83 40 0 9 -165 69 -521 193 -151 52 -298 104 -327 115 -62 25 -83 27
-56 5z"/>
<path d="M1518 3123 c6 -2 18 -2 25 0 6 3 1 5 -13 5 -14 0 -19 -2 -12 -5z"/>
<path d="M1463 3113 c9 -2 23 -2 30 0 6 3 -1 5 -18 5 -16 0 -22 -2 -12 -5z"/>
<path d="M7370 2819 c0 -17 102 -209 157 -293 90 -140 165 -209 208 -192 11 4
15 21 15 64 0 63 -23 120 -77 187 -53 66 -303 259 -303 234z"/>
<path d="M1659 2743 c-13 -16 -12 -17 4 -4 16 13 21 21 13 21 -2 0 -10 -8 -17
-17z"/>
<path d="M1599 2673 l-24 -28 28 24 c25 23 32 31 24 31 -2 0 -14 -12 -28 -27z"/>
<path d="M2736 2455 c-9 -26 -7 -32 5 -12 6 10 9 21 6 23 -2 3 -7 -2 -11 -11z"/>
<path d="M2935 2440 c-3 -6 1 -7 9 -4 18 7 21 14 7 14 -6 0 -13 -4 -16 -10z"/>
<path d="M2706 2375 c-10 -24 -15 -49 -11 -55 3 -5 1 -10 -6 -10 -7 0 -10 -2
-7 -5 3 -3 13 -3 22 1 12 5 16 14 12 30 -3 12 -1 35 4 50 6 15 9 28 7 31 -2 2
-12 -17 -21 -42z"/>
<path d="M2870 2390 c-8 -5 -10 -10 -5 -10 6 0 17 5 25 10 8 5 11 10 5 10 -5
0 -17 -5 -25 -10z"/>
<path d="M2805 2360 c-3 -6 1 -7 9 -4 18 7 21 14 7 14 -6 0 -13 -4 -16 -10z"/>
</g>
</svg>
